{"asset":{"version":"2.0","generator":"Blockbench 4.9.4 glTF exporter"},"scenes":[{"nodes":[21],"name":"blockbench_export"}],"scene":0,"nodes":[{"translation":[0,0,2.220446049250313e-16],"name":"cube","mesh":0},{"translation":[-5.5000000000000036,0,-1.5499999999999992],"name":"PatasIzquierda","children":[0]},{"translation":[0,0,2.220446049250313e-16],"name":"cube","mesh":1},{"translation":[5.299999999999995,0,-1.5000000000000002],"name":"PatasDerecha","children":[2]},{"translation":[0,0,-2.220446049250313e-15],"name":"cube","mesh":2},{"translation":[-5.5500000000000025,0,1.5999999999999996],"name":"PatasIzquierdaAtras","children":[4]},{"translation":[0,0,8.881784197001252e-16],"name":"cube","mesh":3},{"translation":[5.300000000000001,0,1.700000000000001],"name":"PatasDerechaAtras","children":[6]},{"translation":[0.05000000000000071,1.5,0],"name":"patas","children":[1,3,5,7]},{"name":"cube","mesh":4},{"translation":[0,3.5,0],"name":"torso","children":[9]},{"translation":[-1.6208333333333327,-0.708333333333333,-0.08333333333333418],"name":"pico","mesh":5},{"translation":[-1.5708333333333284,-1.333333333333333,-0.08333333333333572],"name":"boca","mesh":6},{"translation":[-2.5708333333333337,-1.333333333333333,0.04166666666666605],"name":"lengua","mesh":7},{"translation":[2.3791666666666673,1.916666666666667,-1.2083333333333335],"name":"orejaIzquierda","mesh":8},{"translation":[2.3791666666666673,1.916666666666667,1.2916666666666663],"name":"orejaDerecha","mesh":9},{"translation":[1.0041666666666647,-0.45833333333333304,0.041666666666663965],"name":"cabeza","mesh":10},{"translation":[-7.504166666666667,6.458333333333333,0.18333333333333357],"name":"h_head","children":[11,12,13,14,15,16]},{"rotation":[0,0,-0.19509032201612825,0.9807852804032304],"translation":[0.1913417161825448,0.46193976625564304,1.1102230246251565e-16],"name":"cube","mesh":11},{"translation":[6.857537816328742,5.655376801379267,0.125],"name":"cola","children":[18]},{"rotation":[0,-0.7071067811865475,0,0.7071067811865476],"name":"Cuerpo","children":[8,10,17,19]},{"children":[20]}],"bufferViews":[{"buffer":0,"byteOffset":0,"byteLength":288,"target":34962,"byteStride":12},{"buffer":0,"byteOffset":288,"byteLength":288,"target":34962,"byteStride":12},{"buffer":0,"byteOffset":576,"byteLength":192,"target":34962,"byteStride":8},{"buffer":0,"byteOffset":768,"byteLength":72,"target":34963},{"buffer":0,"byteOffset":840,"byteLength":288,"target":34962,"byteStride":12},{"buffer":0,"byteOffset":1128,"byteLength":288,"target":34962,"byteStride":12},{"buffer":0,"byteOffset":1416,"byteLength":192,"target":34962,"byteStride":8},{"buffer":0,"byteOffset":1608,"byteLength":72,"target":34963},{"buffer":0,"byteOffset":1680,"byteLength":288,"target":34962,"byteStride":12},{"buffer":0,"byteOffset":1968,"byteLength":288,"target":34962,"byteStride":12},{"buffer":0,"byteOffset":2256,"byteLength":192,"target":34962,"byteStride":8},{"buffer":0,"byteOffset":2448,"byteLength":72,"target":34963},{"buffer":0,"byteOffset":2520,"byteLength":288,"target":34962,"byteStride":12},{"buffer":0,"byteOffset":2808,"byteLength":288,"target":34962,"byteStride":12},{"buffer":0,"byteOffset":3096,"byteLength":192,"target":34962,"byteStride":8},{"buffer":0,"byteOffset":3288,"byteLength":72,"target":34963},{"buffer":0,"byteOffset":3360,"byteLength":288,"target":34962,"byteStride":12},{"buffer":0,"byteOffset":3648,"byteLength":288,"target":34962,"byteStride":12},{"buffer":0,"byteOffset":3936,"byteLength":192,"target":34962,"byteStride":8},{"buffer":0,"byteOffset":4128,"byteLength":72,"target":34963},{"buffer":0,"byteOffset":4200,"byteLength":288,"target":34962,"byteStride":12},{"buffer":0,"byteOffset":4488,"byteLength":288,"target":34962,"byteStride":12},{"buffer":0,"byteOffset":4776,"byteLength":192,"target":34962,"byteStride":8},{"buffer":0,"byteOffset":4968,"byteLength":72,"target":34963},{"buffer":0,"byteOffset":5040,"byteLength":288,"target":34962,"byteStride":12},{"buffer":0,"byteOffset":5328,"byteLength":288,"target":34962,"byteStride":12},{"buffer":0,"byteOffset":5616,"byteLength":192,"target":34962,"byteStride":8},{"buffer":0,"byteOffset":5808,"byteLength":72,"target":34963},{"buffer":0,"byteOffset":5880,"byteLength":288,"target":34962,"byteStride":12},{"buffer":0,"byteOffset":6168,"byteLength":288,"target":34962,"byteStride":12},{"buffer":0,"byteOffset":6456,"byteLength":192,"target":34962,"byteStride":8},{"buffer":0,"byteOffset":6648,"byteLength":72,"target":34963},{"buffer":0,"byteOffset":6720,"byteLength":288,"target":34962,"byteStride":12},{"buffer":0,"byteOffset":7008,"byteLength":288,"target":34962,"byteStride":12},{"buffer":0,"byteOffset":7296,"byteLength":192,"target":34962,"byteStride":8},{"buffer":0,"byteOffset":7488,"byteLength":72,"target":34963},{"buffer":0,"byteOffset":7560,"byteLength":288,"target":34962,"byteStride":12},{"buffer":0,"byteOffset":7848,"byteLength":288,"target":34962,"byteStride":12},{"buffer":0,"byteOffset":8136,"byteLength":192,"target":34962,"byteStride":8},{"buffer":0,"byteOffset":8328,"byteLength":72,"target":34963},{"buffer":0,"byteOffset":8400,"byteLength":288,"target":34962,"byteStride":12},{"buffer":0,"byteOffset":8688,"byteLength":288,"target":34962,"byteStride":12},{"buffer":0,"byteOffset":8976,"byteLength":192,"target":34962,"byteStride":8},{"buffer":0,"byteOffset":9168,"byteLength":72,"target":34963},{"buffer":0,"byteOffset":9240,"byteLength":288,"target":34962,"byteStride":12},{"buffer":0,"byteOffset":9528,"byteLength":288,"target":34962,"byteStride":12},{"buffer":0,"byteOffset":9816,"byteLength":192,"target":34962,"byteStride":8},{"buffer":0,"byteOffset":10008,"byteLength":72,"target":34963},{"buffer":0,"byteOffset":10080,"byteLength":20},{"buffer":0,"byteOffset":10100,"byteLength":80},{"buffer":0,"byteOffset":10180,"byteLength":20},{"buffer":0,"byteOffset":10200,"byteLength":80},{"buffer":0,"byteOffset":10280,"byteLength":20},{"buffer":0,"byteOffset":10300,"byteLength":80},{"buffer":0,"byteOffset":10380,"byteLength":20},{"buffer":0,"byteOffset":10400,"byteLength":80},{"buffer":0,"byteOffset":10480,"byteLength":20},{"buffer":0,"byteOffset":10500,"byteLength":80},{"buffer":0,"byteOffset":10580,"byteLength":20},{"buffer":0,"byteOffset":10600,"byteLength":80},{"buffer":0,"byteOffset":10680,"byteLength":20},{"buffer":0,"byteOffset":10700,"byteLength":80},{"buffer":0,"byteOffset":10780,"byteLength":20},{"buffer":0,"byteOffset":10800,"byteLength":80}],"buffers":[{"byteLength":10880,"uri":"data:application/octet-stream;base64,"}],"accessors":[{"bufferView":0,"componentType":5126,"count":24,"max":[0.5,1.5,0.5],"min":[-0.5,-1.5,-0.5],"type":"VEC3"},{"bufferView":1,"componentType":5126,"count":24,"max":[1,1,1],"min":[-1,-1,-1],"type":"VEC3"},{"bufferView":2,"componentType":5126,"count":24,"max":[0.00390625,0.01171875],"min":[0,0],"type":"VEC2"},{"bufferView":3,"componentType":5123,"count":36,"max":[23],"min":[0],"type":"SCALAR"},{"bufferView":4,"componentType":5126,"count":24,"max":[0.5,1.5,0.5],"min":[-0.5,-1.5,-0.5],"type":"VEC3"},{"bufferView":5,"componentType":5126,"count":24,"max":[1,1,1],"min":[-1,-1,-1],"type":"VEC3"},{"bufferView":6,"componentType":5126,"count":24,"max":[0.00390625,0.01171875],"min":[0,0],"type":"VEC2"},{"bufferView":7,"componentType":5123,"count":36,"max":[23],"min":[0],"type":"SCALAR"},{"bufferView":8,"componentType":5126,"count":24,"max":[0.5,1.5,0.5],"min":[-0.5,-1.5,-0.5],"type":"VEC3"},{"bufferView":9,"componentType":5126,"count":24,"max":[1,1,1],"min":[-1,-1,-1],"type":"VEC3"},{"bufferView":10,"componentType":5126,"count":24,"max":[0.00390625,0.01171875],"min":[0,0],"type":"VEC2"},{"bufferView":11,"componentType":5123,"count":36,"max":[23],"min":[0],"type":"SCALAR"},{"bufferView":12,"componentType":5126,"count":24,"max":[0.5,1.5,0.5],"min":[-0.5,-1.5,-0.5],"type":"VEC3"},{"bufferView":13,"componentType":5126,"count":24,"max":[1,1,1],"min":[-1,-1,-1],"type":"VEC3"},{"bufferView":14,"componentType":5126,"count":24,"max":[0.00390625,0.01171875],"min":[0,0],"type":"VEC2"},{"bufferView":15,"componentType":5123,"count":36,"max":[23],"min":[0],"type":"SCALAR"},{"bufferView":16,"componentType":5126,"count":24,"max":[7,1.5,3],"min":[-7,-1.5,-3],"type":"VEC3"},{"bufferView":17,"componentType":5126,"count":24,"max":[1,1,1],"min":[-1,-1,-1],"type":"VEC3"},{"bufferView":18,"componentType":5126,"count":24,"max":[1,1],"min":[0,0.375],"type":"VEC2"},{"bufferView":19,"componentType":5123,"count":36,"max":[23],"min":[0],"type":"SCALAR"},{"bufferView":20,"componentType":5126,"count":24,"max":[0.8999999761581421,0.5,1.375],"min":[-0.8999999761581421,-0.5,-1.375],"type":"VEC3"},{"bufferView":21,"componentType":5126,"count":24,"max":[1,1,1],"min":[-1,-1,-1],"type":"VEC3"},{"bufferView":22,"componentType":5126,"count":24,"max":[0.375,0.25],"min":[0,0],"type":"VEC2"},{"bufferView":23,"componentType":5123,"count":36,"max":[23],"min":[0],"type":"SCALAR"},{"bufferView":24,"componentType":5126,"count":24,"max":[0.7749999761581421,0.125,1.25],"min":[-0.7749999761581421,-0.125,-1.25],"type":"VEC3"},{"bufferView":25,"componentType":5126,"count":24,"max":[1,1,1],"min":[-1,-1,-1],"type":"VEC3"},{"bufferView":26,"componentType":5126,"count":24,"max":[0.375,0.25],"min":[0,0],"type":"VEC2"},{"bufferView":27,"componentType":5123,"count":36,"max":[23],"min":[0],"type":"SCALAR"},{"bufferView":28,"componentType":5126,"count":24,"max":[0.2750000059604645,0.125,0.375],"min":[-0.2750000059604645,-0.125,-0.375],"type":"VEC3"},{"bufferView":29,"componentType":5126,"count":24,"max":[1,1,1],"min":[-1,-1,-1],"type":"VEC3"},{"bufferView":30,"componentType":5126,"count":24,"max":[0.375,1],"min":[0,0],"type":"VEC2"},{"bufferView":31,"componentType":5123,"count":36,"max":[23],"min":[0],"type":"SCALAR"},{"bufferView":32,"componentType":5126,"count":24,"max":[0.2750000059604645,0.625,0.625],"min":[-0.2750000059604645,-0.625,-0.625],"type":"VEC3"},{"bufferView":33,"componentType":5126,"count":24,"max":[1,1,1],"min":[-1,-1,-1],"type":"VEC3"},{"bufferView":34,"componentType":5126,"count":24,"max":[0.375,0.5],"min":[0,0],"type":"VEC2"},{"bufferView":35,"componentType":5123,"count":36,"max":[23],"min":[0],"type":"SCALAR"},{"bufferView":36,"componentType":5126,"count":24,"max":[0.2750000059604645,0.625,0.625],"min":[-0.2750000059604645,-0.625,-0.625],"type":"VEC3"},{"bufferView":37,"componentType":5126,"count":24,"max":[1,1,1],"min":[-1,-1,-1],"type":"VEC3"},{"bufferView":38,"componentType":5126,"count":24,"max":[0.4375,0.5],"min":[0,0],"type":"VEC2"},{"bufferView":39,"componentType":5123,"count":36,"max":[23],"min":[0],"type":"SCALAR"},{"bufferView":40,"componentType":5126,"count":24,"max":[1.774999976158142,1.75,2],"min":[-1.774999976158142,-1.75,-2],"type":"VEC3"},{"bufferView":41,"componentType":5126,"count":24,"max":[1,1,1],"min":[-1,-1,-1],"type":"VEC3"},{"bufferView":42,"componentType":5126,"count":24,"max":[1,0.375],"min":[0,0],"type":"VEC2"},{"bufferView":43,"componentType":5123,"count":36,"max":[23],"min":[0],"type":"SCALAR"},{"bufferView":44,"componentType":5126,"count":24,"max":[0.625,1.5,0.625],"min":[-0.625,-2.5,-0.625],"type":"VEC3"},{"bufferView":45,"componentType":5126,"count":24,"max":[1,1,1],"min":[-1,-1,-1],"type":"VEC3"},{"bufferView":46,"componentType":5126,"count":24,"max":[1,0.75],"min":[0,0],"type":"VEC2"},{"bufferView":47,"componentType":5123,"count":36,"max":[23],"min":[0],"type":"SCALAR"},{"bufferView":48,"componentType":5126,"count":5,"max":[0.5],"min":[0],"type":"SCALAR"},{"bufferView":49,"componentType":5126,"count":5,"max":[0,0.19509032368659973,0,1],"min":[0,-0.19509032368659973,0,0.9807852506637573],"type":"VEC4"},{"bufferView":50,"componentType":5126,"count":5,"max":[1],"min":[0],"type":"SCALAR"},{"bufferView":51,"componentType":5126,"count":5,"max":[0,0,0.19509032368659973,1],"min":[0,0,-0.19509032368659973,0.9807852506637573],"type":"VEC4"},{"bufferView":52,"componentType":5126,"count":5,"max":[1],"min":[0],"type":"SCALAR"},{"bufferView":53,"componentType":5126,"count":5,"max":[0,0,0.19509032368659973,1],"min":[0,0,-0.19509032368659973,0.9807852506637573],"type":"VEC4"},{"bufferView":54,"componentType":5126,"count":5,"max":[1],"min":[0],"type":"SCALAR"},{"bufferView":55,"componentType":5126,"count":5,"max":[0,0,0.19509032368659973,1],"min":[0,0,-0.19509032368659973,0.9807852506637573],"type":"VEC4"},{"bufferView":56,"componentType":5126,"count":5,"max":[1],"min":[0],"type":"SCALAR"},{"bufferView":57,"componentType":5126,"count":5,"max":[0,0,0.19509032368659973,1],"min":[0,0,-0.19509032368659973,0.9807852506637573],"type":"VEC4"},{"bufferView":58,"componentType":5126,"count":5,"max":[1],"min":[0],"type":"SCALAR"},{"bufferView":59,"componentType":5126,"count":5,"max":[0.02181488461792469,0,0,1],"min":[-0.02181488461792469,0,0,0.9997619986534119],"type":"VEC4"},{"bufferView":60,"componentType":5126,"count":5,"max":[1],"min":[0],"type":"SCALAR"},{"bufferView":61,"componentType":5126,"count":5,"max":[0.04361938685178757,0,0,1],"min":[-0.02181488461792469,0,0,0.9990482330322266],"type":"VEC4"},{"bufferView":62,"componentType":5126,"count":5,"max":[1],"min":[0],"type":"SCALAR"},{"bufferView":63,"componentType":5126,"count":5,"max":[0,0.10886687785387039,0,1],"min":[0,-0.13052618503570557,0,0.9914448857307434],"type":"VEC4"}],"materials":[{"pbrMetallicRoughness":{"metallicFactor":0,"roughnessFactor":1,"baseColorTexture":{"index":0}},"alphaMode":"MASK","alphaCutoff":0.05,"doubleSided":true}],"textures":[{"sampler":0,"source":0}],"samplers":[{"magFilter":9728,"minFilter":9728,"wrapS":33071,"wrapT":33071}],"images":[{"mimeType":"image/png","uri":"data:image/png;base64,"}],"meshes":[{"primitives":[{"mode":4,"attributes":{"POSITION":0,"NORMAL":1,"TEXCOORD_0":2},"indices":3,"material":0}]},{"primitives":[{"mode":4,"attributes":{"POSITION":4,"NORMAL":5,"TEXCOORD_0":6},"indices":7,"material":0}]},{"primitives":[{"mode":4,"attributes":{"POSITION":8,"NORMAL":9,"TEXCOORD_0":10},"indices":11,"material":0}]},{"primitives":[{"mode":4,"attributes":{"POSITION":12,"NORMAL":13,"TEXCOORD_0":14},"indices":15,"material":0}]},{"primitives":[{"mode":4,"attributes":{"POSITION":16,"NORMAL":17,"TEXCOORD_0":18},"indices":19,"material":0}]},{"primitives":[{"mode":4,"attributes":{"POSITION":20,"NORMAL":21,"TEXCOORD_0":22},"indices":23,"material":0}]},{"primitives":[{"mode":4,"attributes":{"POSITION":24,"NORMAL":25,"TEXCOORD_0":26},"indices":27,"material":0}]},{"primitives":[{"mode":4,"attributes":{"POSITION":28,"NORMAL":29,"TEXCOORD_0":30},"indices":31,"material":0}]},{"primitives":[{"mode":4,"attributes":{"POSITION":32,"NORMAL":33,"TEXCOORD_0":34},"indices":35,"material":0}]},{"primitives":[{"mode":4,"attributes":{"POSITION":36,"NORMAL":37,"TEXCOORD_0":38},"indices":39,"material":0}]},{"primitives":[{"mode":4,"attributes":{"POSITION":40,"NORMAL":41,"TEXCOORD_0":42},"indices":43,"material":0}]},{"primitives":[{"mode":4,"attributes":{"POSITION":44,"NORMAL":45,"TEXCOORD_0":46},"indices":47,"material":0}]}],"animations":[{"name":"idle","samplers":[{"input":48,"output":49,"interpolation":"LINEAR"}],"channels":[{"sampler":0,"target":{"node":19,"path":"rotation"}}]},{"name":"walk","samplers":[{"input":50,"output":51,"interpolation":"LINEAR"},{"input":52,"output":53,"interpolation":"LINEAR"},{"input":54,"output":55,"interpolation":"LINEAR"},{"input":56,"output":57,"interpolation":"LINEAR"},{"input":58,"output":59,"interpolation":"LINEAR"},{"input":60,"output":61,"interpolation":"LINEAR"},{"input":62,"output":63,"interpolation":"LINEAR"}],"channels":[{"sampler":0,"target":{"node":1,"path":"rotation"}},{"sampler":1,"target":{"node":3,"path":"rotation"}},{"sampler":2,"target":{"node":5,"path":"rotation"}},{"sampler":3,"target":{"node":7,"path":"rotation"}},{"sampler":4,"target":{"node":10,"path":"rotation"}},{"sampler":5,"target":{"node":17,"path":"rotation"}},{"sampler":6,"target":{"node":19,"path":"rotation"}}]}]}